<?xml version="1.0" encoding="utf-8"?>
<!-- Generator: Adobe Illustrator 15.0.0, SVG Export Plug-In  -->
<!DOCTYPE svg PUBLIC "-//W3C//DTD SVG 1.1//EN" "http://www.w3.org/Graphics/SVG/1.1/DTD/svg11.dtd" [
	<!ENTITY ns_flows "http://ns.adobe.com/Flows/1.0/">
]>
<svg version="1.1"
	 xmlns="http://www.w3.org/2000/svg" xmlns:xlink="http://www.w3.org/1999/xlink" xmlns:a="http://ns.adobe.com/AdobeSVGViewerExtensions/3.0/"
	 x="0px" y="0px" width="145px" height="145px" viewBox="-53.174 -9.63 145 145" enable-background="new -53.174 -9.63 145 145"
	 xml:space="preserve">
<defs>
</defs>
<path d="M33.094,50.511c-3.483-3.483-3.483-6.967-3.483-12.193c0-5.675-1.606-19.695-2.637-28.119
	c0.525-0.299,0.896-0.842,0.896-1.49c0-0.8-0.549-1.446-1.283-1.649c-0.037-0.286-0.072-0.554-0.104-0.81
	c0.838-0.637,1.387-1.633,1.387-2.766C27.869,1.562,26.307,0,24.385,0H13.934c-1.922,0-3.483,1.562-3.483,3.483
	c0,1.133,0.548,2.129,1.386,2.766c-0.033,0.256-0.065,0.523-0.103,0.81c-0.735,0.203-1.283,0.85-1.283,1.649
	c0,0.648,0.369,1.191,0.896,1.49c-1.032,8.424-2.638,22.444-2.638,28.119c0,5.227,0,8.71-3.483,12.193
	C1.743,53.995,0,57.478,0,62.703v59.22c0,1.922,1.561,3.483,3.484,3.483h31.351c1.923,0,3.484-1.562,3.484-3.483v-59.22
	C38.319,57.478,36.579,53.992,33.094,50.511z"/>
</svg>
