<?xml version="1.0" encoding="utf-8"?>
<!-- Generator: Adobe Illustrator 15.0.0, SVG Export Plug-In  -->
<!DOCTYPE svg PUBLIC "-//W3C//DTD SVG 1.1//EN" "http://www.w3.org/Graphics/SVG/1.1/DTD/svg11.dtd" [
	<!ENTITY ns_flows "http://ns.adobe.com/Flows/1.0/">
]>
<svg version="1.1"
	 xmlns="http://www.w3.org/2000/svg" xmlns:xlink="http://www.w3.org/1999/xlink" xmlns:a="http://ns.adobe.com/AdobeSVGViewerExtensions/3.0/"
	 x="0px" y="0px" width="145px" height="145px" viewBox="-42.451 -43.798 145 145" enable-background="new -42.451 -43.798 145 145"
	 xml:space="preserve">
<defs>
</defs>
<path d="M59.498,6.612c-0.092-0.25-0.201-0.484-0.323-0.705c-0.002-0.002-0.004-0.005-0.005-0.008
	c-0.12-0.214-0.253-0.413-0.396-0.601c-0.008-0.01-0.015-0.021-0.022-0.03c-0.139-0.179-0.287-0.345-0.441-0.5
	c-0.013-0.013-0.024-0.026-0.037-0.038c-0.161-0.16-0.329-0.309-0.502-0.444c-1.499-1.182-3.063-1.611-3.063-1.611l-0.121-0.04
	C50.378,1.548,42.304,0,30.351,0C17.602,0,9.349,1.672,5.32,2.763c0,0-0.359,0.07-0.886,0.25C3.908,3.193,3.213,3.49,2.526,3.942
	l0,0C2.309,4.086,2.094,4.247,1.885,4.424C1.876,4.431,1.867,4.438,1.858,4.445C1.221,4.992,0.654,5.704,0.319,6.621l0,0
	C0.124,7.156,0,7.753,0,8.438l0,0L8.666,52.25c0.269,1.355,1.308,2.426,2.654,2.733c0.373,0.085,9.244,2.088,18.779,2.088
	s18.407-2.003,18.78-2.088c1.359-0.311,2.404-1.398,2.66-2.77L59.724,8.41C59.724,8.41,59.91,7.612,59.498,6.612z M30.351,5
	c7.865,0,13.952,0.71,18.252,1.475c-4.092,0.688-10.126,1.32-18.503,1.32c-8.291,0-14.336-0.62-18.483-1.301
	C15.915,5.724,22.115,5,30.351,5z"/>
</svg>
