<?xml version="1.0" encoding="utf-8"?>
<!-- Generator: Adobe Illustrator 15.0.0, SVG Export Plug-In  -->
<!DOCTYPE svg PUBLIC "-//W3C//DTD SVG 1.1//EN" "http://www.w3.org/Graphics/SVG/1.1/DTD/svg11.dtd" [
	<!ENTITY ns_flows "http://ns.adobe.com/Flows/1.0/">
]>
<svg version="1.1"
	 xmlns="http://www.w3.org/2000/svg" xmlns:xlink="http://www.w3.org/1999/xlink" xmlns:a="http://ns.adobe.com/AdobeSVGViewerExtensions/3.0/"
	 x="0px" y="0px" width="145px" height="145px" viewBox="-42.28 -18.276 145 145" enable-background="new -42.28 -18.276 145 145"
	 xml:space="preserve">
<defs>
</defs>
<path d="M60.106,10.405V7.761l-0.021-0.008c0-3.098-1.46-4.225-2.554-4.637c-0.356-0.072-0.745-0.152-1.165-0.234
	c-0.002,0-0.01,0-0.01,0V2.88c-5.413-1.068-15.842-2.811-26.481-2.877C19.331-0.083,9.058,1.544,3.728,2.554L3.729,2.56
	c0,0-0.016,0-0.025,0C3.324,2.632,2.97,2.7,2.643,2.765C1.542,3.146,0,4.245,0,7.429v2.977c0,15.656,12.033,28.547,27.337,29.926
	v57.625c-18.804,0.322-23.258,3.934-23.719,4.363c-0.412,0.383-0.585,0.959-0.45,1.506c0.134,0.547,0.552,0.979,1.095,1.127
	c0.469,0.131,11.627,3.162,25.573,3.162s25.104-3.031,25.573-3.162c0.538-0.146,0.955-0.572,1.093-1.115
	c0.137-0.541-0.027-1.113-0.431-1.5c-0.448-0.43-4.781-4.053-23.301-4.379V40.331C48.072,38.952,60.106,26.062,60.106,10.405z
	 M29.846,4.661c7.991,0.049,16.011,1.115,21.628,2.068c-5.321,0.875-13.14,1.875-21.043,1.875c-0.185,0-0.372,0-0.559-0.002
	C21.45,8.552,13.12,7.474,7.675,6.591C13.215,5.669,21.516,4.593,29.846,4.661z"/>
</svg>
